# xmcd
#
# Track frame offsets:
#	150
#	48144
#	81984
#	115601
#	169989
#
# Disc length: 3076 seconds
#
# Revision: 0
# Processed by: cddbd v1.5.2PL0 Copyright (c) Steve Scherf et al.
# Submitted via: audiograbber 1.83.01
#
DISCID=350c0205
DTITLE=Grateful Dead - 93-09-17 Madison Square Garden, New York NY
DYEAR=1900
DGENRE=
TTITLE0=Foolish Heart
TTITLE1=Men Smart, Women Smarter
TTITLE2=Ship Of Fools
TTITLE3=Saint Of Circumstance > Jam
TTITLE4=Drums
EXTD=
EXTT0=
EXTT1=
EXTT2=
EXTT3=
EXTT4=
PLAYORDER=
